#!OML:ASF H:\Dans Jumps\Project 1\Capture day 1\Session 1\subject.ASF
:FULLY-SPECIFIED
:DEGREES
1291
root 2.28962 17.554 1.94827 5.70371 -12.0863 -4.99638
lowerback 10.1459 -0.5289 1.59995
upperback 7.3445 -0.658297 4.32037
thorax 2.00517 -0.397458 3.64557
lowerneck -15.5005 0.285998 -0.236052
upperneck 14.9206 0.635902 -1.10673
head 7.12546 0.186122 -0.254844
rclavicle -3.1408e-014 8.34896e-015
rhumerus -20.0294 -14.7175 -73.7571
rradius 43.9539
rwrist 10.5964
rhand -19.2776 -29.7802
rfingers 7.12502
rthumb 7.03716 -59.6432
lclavicle -3.1408e-014 8.34896e-015
lhumerus -24.2648 -15.8922 89.2616
lradius 38.9883
lwrist 21.7181
lhand -23.2378 -2.18105
lfingers 7.12502
lthumb 3.21346 27.7745
rfemur -62.4515 -25.1832 20.3597
rtibia 83.2032
rfoot -12.8813 -19.1444
rtoes 28.5512
lfemur -18.2987 14.9798 -21.9593
ltibia 29.0969
lfoot -13.0789 14.1918
ltoes 10.8249
1292
root 2.32078 17.5642 1.94245 5.72527 -12.717 -5.15774
lowerback 10.2771 -0.43236 1.58532
upperback 7.40701 -0.532359 4.34414
thorax 1.99354 -0.337274 3.67005
lowerneck -15.6071 0.337516 -0.164504
upperneck 15.0486 0.718969 -1.26057
head 7.18691 0.214467 -0.307888
rclavicle 2.84262e-014 3.49861e-014
rhumerus -19.9542 -14.5586 -73.5555
rradius 44.1332
rwrist 9.99368
rhand -19.7905 -29.6036
rfingers 7.12502
rthumb 6.54209 -59.4826
lclavicle 2.84262e-014 3.49861e-014
lhumerus -24.1438 -16.0931 89.0409
lradius 39.0125
lwrist 21.716
lhand -23.5851 -2.03039
lfingers 7.12502
lthumb 2.87809 27.9299
rfemur -63.819 -24.9962 20.6764
rtibia 84.0239
rfoot -13.7997 -19.4259
rtoes 29.7555
lfemur -18.1538 14.9444 -21.8953
ltibia 28.8899
lfoot -12.9113 14.797
ltoes 11.297
1293
root 2.3542 17.5722 1.93689 5.76083 -13.2918 -5.32256
lowerback 10.4488 -0.385458 1.56364
upperback 7.45644 -0.470727 4.41063
thorax 1.9503 -0.310635 3.74901
lowerneck -15.5342 0.400433 -0.24183
upperneck 15.0069 0.843898 -1.38608
head 7.16197 0.258512 -0.322928
rclavicle 2.5842e-015 -2.78299e-015
rhumerus -19.7703 -14.3477 -73.3624
rradius 44.2409
rwrist 10.1537
rhand -19.6329 -29.8182
rfingers 7.12502
rthumb 6.69416 -59.6924
lclavicle 2.5842e-015 -2.78299e-015
lhumerus -23.9449 -15.7289 88.7937
lradius 38.9202
lwrist 21.8376
lhand -23.3449 -2.3558
lfingers 7.12502
lthumb 3.10999 27.6013
rfemur -65.1761 -24.8251 21.0093
rtibia 84.7416
rfoot -14.908 -19.8577
rtoes 30.3325
lfemur -18.018 14.8056 -21.8379
ltibia 28.6643
lfoot -12.7604 15.4229
ltoes 11.9651
1294
root 2.38451 17.5775 1.92951 5.82112 -13.9475 -5.46303
lowerback 10.5604 -0.298583 1.49765
upperback 7.51107 -0.362607 4.45749
thorax 1.94241 -0.261989 3.82756
lowerneck -15.4961 0.45507 -0.259876
upperneck 15.0059 0.951032 -1.54845
head 7.15672 0.293696 -0.361582
rclavicle 5.96354e-015 -1.63003e-014
rhumerus -19.6094 -14.3161 -73.1185
rradius 44.3262
rwrist 10.4801
rhand -19.4924 -29.7873
rfingers 7.12502
rthumb 6.8298 -59.6571
lclavicle 5.96354e-015 -1.63003e-014
lhumerus -23.7577 -15.6614 88.5173
lradius 38.891
lwrist 21.8852
lhand -23.2808 -2.2089
lfingers 7.12502
lthumb 3.17197 27.7473
rfemur -66.5618 -24.4977 21.3405
rtibia 85.3816
rfoot -16.2659 -20.3535
rtoes 30.7176
lfemur -17.9354 14.7819 -21.8075
ltibia 28.4584
lfoot -12.6021 16.023
ltoes 12.3724
1295
root 2.41618 17.5894 1.92549 5.89639 -14.5678 -5.65002
lowerback 10.6453 -0.226009 1.5241
upperback 7.5853 -0.268424 4.49713
thorax 1.96976 -0.217033 3.84715
lowerneck -15.5735 0.534072 -0.24024
upperneck 15.0782 1.08671 -1.72112
head 7.196 0.342563 -0.406625
rclavicle -7.5737e-014 2.5842e-014
rhumerus -19.509 -14.196 -72.9156
rradius 44.5312
rwrist 10.5993
rhand -19.5426 -29.6744
rfingers 7.12502
rthumb 6.78139 -59.5458
lclavicle -7.5737e-014 2.5842e-014
lhumerus -23.6512 -15.4527 88.2872
lradius 38.8834
lwrist 21.6975
lhand -23.3024 -2.20989
lfingers 7.12502
lthumb 3.15106 27.7466
rfemur -67.8261 -24.1568 21.6872
rtibia 85.8889
rfoot -17.7221 -20.8894
rtoes 31.3304
lfemur -17.8326 14.7838 -21.7299
ltibia 28.263
lfoot -12.4957 16.5746
ltoes 12.831
1296
root 2.44738 17.5989 1.92065 5.98029 -15.2317 -5.88319
lowerback 10.7867 -0.1399 1.58426
upperback 7.63337 -0.150255 4.55752
thorax 1.93764 -0.15904 3.86745
lowerneck -15.6026 0.605937 -0.239345
upperneck 15.1424 1.216 -1.88995
head 7.22443 0.387771 -0.448073
rclavicle 2.8625e-014 -2.74323e-014
rhumerus -19.3357 -14.1199 -72.745
rradius 44.6071
rwrist 10.7355
rhand -19.7255 -29.699
rfingers 7.12502
rthumb 6.60479 -59.576
lclavicle 2.8625e-014 -2.74323e-014
lhumerus -23.5046 -15.3602 88.026
lradius 38.8217
lwrist 21.6339
lhand -23.1651 -2.10249
lfingers 7.12502
lthumb 3.28366 27.852
rfemur -69.0483 -23.7293 22.0709
rtibia 86.2952
rfoot -19.3062 -21.2773
rtoes 31.9098
lfemur -17.7257 14.845 -21.5981
ltibia 28.0594
lfoot -12.3908 17.0948
ltoes 13.3907
1297
root 2.47824 17.6071 1.91454 6.08651 -15.8452 -6.08478
lowerback 10.9351 -0.0683836 1.63048
upperback 7.66405 -0.0507747 4.60546
thorax 1.88432 -0.110307 3.88379
lowerneck -15.6413 0.699204 -0.18922
upperneck 15.2139 1.37091 -2.1001
head 7.25808 0.443954 -0.508295
rclavicle -3.20043e-014 1.11319e-014
rhumerus -19.2787 -13.8234 -72.5981
rradius 44.8854
rwrist 10.5111
rhand -20.1115 -30.0573
rfingers 7.12502
rthumb 6.2322 -59.9456
lclavicle -3.20043e-014 1.11319e-014
lhumerus -23.4413 -15.1259 87.8237
lradius 38.7757
lwrist 21.3873
lhand -23.1828 -2.12281
lfingers 7.12502
lthumb 3.26655 27.8319
rfemur -70.2696 -23.3396 22.423
rtibia 86.6069
rfoot -20.8459 -21.4756
rtoes 32.5233
lfemur -17.6352 14.9325 -21.5136
ltibia 27.81
lfoot -12.2791 17.5547
ltoes 13.9077
1298
root 2.50958 17.6197 1.91058 6.18988 -16.4856 -6.33064
lowerback 11.0363 0.00868931 1.75592
upperback 7.70914 0.0596399 4.64472
thorax 1.87142 -0.0532036 3.84471
lowerneck -15.6437 0.751722 -0.19766
upperneck 15.2875 1.46701 -2.21722
head 7.28466 0.477394 -0.53493
rclavicle 2.78299e-015 1.70955e-014
rhumerus -19.174 -13.7013 -72.4586
rradius 45.0381
rwrist 10.421
rhand -20.4972 -30.1672
rfingers 7.12502
rthumb 5.85976 -60.0662
lclavicle 2.78299e-015 1.70955e-014
lhumerus -23.3851 -15.1134 87.591
lradius 38.7539
lwrist 21.4123
lhand -23.1267 -2.27067
lfingers 7.12502
lthumb 3.32077 27.6832
rfemur -71.3738 -22.8719 22.7652
rtibia 86.7943
rfoot -22.2915 -21.446
rtoes 33.2984
lfemur -17.51 15.0438 -21.3744
ltibia 27.567
lfoot -12.2351 17.9809
ltoes 14.4174
1299
root 2.54124 17.6331 1.90742 6.22955 -16.9529 -6.53944
lowerback 11.2084 0.00940173 1.88872
upperback 7.77859 0.0720346 4.6821
thorax 1.85172 -0.045178 3.80905
lowerneck -15.733 0.834777 -0.237247
upperneck 15.384 1.60889 -2.30789
head 7.33405 0.532376 -0.542655
rclavicle -5.60573e-014 1.59028e-014
rhumerus -19.0048 -13.5041 -72.3582
rradius 45.1889
rwrist 10.3084
rhand -20.7856 -30.323
rfingers 7.12502
rthumb 5.58138 -60.2295
lclavicle -5.60573e-014 1.59028e-014
lhumerus -23.2561 -15.1822 87.2925
lradius 38.7531
lwrist 21.6145
lhand -23.0809 -2.11018
lfingers 7.12502
lthumb 3.365 27.843
rfemur -72.3128 -22.5713 22.9871
rtibia 86.8781
rfoot -23.6875 -21.2225
rtoes 34.3577
lfemur -17.3163 15.0698 -21.2519
ltibia 27.2929
lfoot -12.1682 18.3287
ltoes 14.8542
